Coordinates
version=1
nRows=32
nColumns=22
inDegrees=yes

Units are S.I. units (second, meters, Newtons, ...)
If the header above contains a line with 'inDegrees', this indicates whether rotational values are in degrees (yes) or radians (no).

endheader
time	pelvis_tilt	pelvis_list	pelvis_rotation	pelvis_tx	pelvis_ty	pelvis_tz	hip_flexion_r	hip_adduction_r	hip_rotation_r	knee_angle_r	ankle_angle_r	subtalar_angle_r	hip_flexion_l	hip_adduction_l	hip_rotation_l	knee_angle_l	ankle_angle_l	subtalar_angle_l	lumbar_extension	lumbar_bending	lumbar_rotation
      1.68000000	      1.54417164	     -2.60794811	     49.91977263	      0.89799930	      0.88486999	      0.74693060	     29.30149955	      0.44515570	      8.16121600	    -18.59211399	      2.74482474	     16.42107101	    -14.75604977	      2.76267460	     15.22440013	    -21.79771684	     18.31119936	    -12.98179834	     -6.16145318	     -0.67668605	    -10.59457945
      1.69000000	      1.86651447	     -2.97665954	     50.15152366	      0.90665107	      0.88461715	      0.73866530	     29.57160939	      1.21065839	      8.52259879	    -20.35189858	      2.20520016	     16.41675094	    -14.69305120	      2.25050490	     15.07035039	    -23.09735975	     17.17355650	    -12.55639548	     -5.86123308	     -0.10047576	    -10.31990129
      1.70000000	      2.24366393	     -3.32702348	     50.41584931	      0.91518761	      0.88472910	      0.73009012	     29.72052903	      1.94272939	      8.71834647	    -22.02285734	      1.88368426	     16.47823895	    -14.53194486	      1.73526252	     14.81902253	    -24.62037629	     15.74485909	    -12.03964429	     -5.60625333	      0.53761931	    -10.11759301
      1.71000000	      2.68527036	     -3.65015523	     50.72233950	      0.92356702	      0.88522656	      0.72122019	     29.68445630	      2.62695758	      8.74368991	    -23.49906655	      1.76935755	     16.60628751	    -14.27061569	      1.21124772	     14.47753047	    -26.37655546	     14.01848450	    -11.52149880	     -5.41814890	      1.23552735	     -9.91267322
      1.72000000	      3.17922555	     -3.93944141	     51.07581200	      0.93175725	      0.88607141	      0.71214985	     29.46242546	      3.25206987	      8.60994130	    -24.75750613	      1.81373442	     16.76514643	    -13.88106099	      0.66699441	     13.97359693	    -28.37233251	     12.02438474	    -11.09834618	     -5.30431514	      1.97298707	     -9.75248190
      1.73000000	      3.66875461	     -4.17618598	     51.50573937	      0.93967701	      0.88722409	      0.70292406	     29.06412318	      3.74919587	      8.31796098	    -25.77109816	      2.11360778	     16.96431215	    -13.33237955	      0.14288224	     13.39433658	    -30.57842445	      9.66344249	    -10.57749856	     -5.24808019	      2.67838708	     -9.63813511
      1.74000000	      4.15484559	     -4.36836586	     52.01073488	      0.94728549	      0.88863476	      0.69368483	     28.49894087	      4.14201556	      7.88937429	    -26.52893266	      2.54373515	     17.09895341	    -12.57578811	     -0.39630453	     12.66435291	    -33.03184780	      7.00247746	    -10.12778706	     -5.25765745	      3.35026295	     -9.58100826
      1.75000000	      4.60508414	     -4.51760272	     52.60130443	      0.95453714	      0.89024959	      0.68452901	     27.79244861	      4.41756224	      7.35353722	    -27.02660772	      3.07673094	     17.13666592	    -11.57882362	     -0.94630436	     11.83385767	    -35.70978810	      4.01059928	     -9.73553351	     -5.32016160	      3.95115629	     -9.58333408
      1.76000000	      5.00284910	     -4.63904331	     53.27109881	      0.96140884	      0.89196824	      0.67552537	     26.99965013	      4.58356670	      6.68427739	    -27.31334500	      3.69963458	     17.05630202	    -10.31301157	     -1.51500852	     10.92943000	    -38.59776541	      0.72112971	     -9.36211331	     -5.41390969	      4.47290765	     -9.60127624
      1.77000000	      5.33691836	     -4.76620139	     54.01254746	      0.96789440	      0.89367870	      0.66676907	     26.17468151	      4.67072145	      5.90572862	    -27.40826396	      4.36538863	     16.80020865	     -8.73336078	     -2.12034954	      9.98246372	    -41.69710179	     -2.79576666	     -9.07108514	     -5.50880186	      4.92061111	     -9.60865991
      1.78000000	      5.63418061	     -4.90886724	     54.83033042	      0.97399121	      0.89535053	      0.65830651	     25.32301388	      4.72774221	      5.06400438	    -27.33110267	      4.93233314	     16.39910216	     -6.85473302	     -2.79340288	      9.03000376	    -44.97765412	     -6.47236466	     -9.03796259	     -5.61690025	      5.32522083	     -9.63967849
      1.79000000	      5.88868425	     -5.10016015	     55.70473231	      0.97973902	      0.89685344	      0.65016920	     24.51680300	      4.78966588	      4.18863438	    -27.14979987	      5.45925987	     15.79451529	     -4.66948901	     -3.52883226	      8.12801651	    -48.39580176	    -10.19705584	     -9.25827665	     -5.69980359	      5.69959302	     -9.63999006
      1.80000000	      6.12623517	     -5.32895682	     56.61559193	      0.98520912	      0.89820782	      0.64231414	     23.73473938	      4.88459050	      3.30772182	    -26.87381793	      5.89666611	     15.03509569	     -2.25651876	     -4.32105655	      7.30476369	    -51.85708043	    -13.83799852	     -9.66475483	     -5.77227727	      6.05710650	     -9.60206243
      1.81000000	      6.37641533	     -5.58475179	     57.55219391	      0.99042334	      0.89942610	      0.63468491	     22.97069419	      5.03792310	      2.44723363	    -26.54145348	      6.21735664	     14.18723463	      0.30276214	     -5.14820080	      6.62325592	    -55.27485030	    -17.21035704	    -10.01256202	     -5.85479618	      6.42660397	     -9.49387616
      1.82000000	      6.63456379	     -5.82602685	     58.47521225	      0.99544920	      0.90056183	      0.62721628	     22.20618627	      5.23461918	      1.64917911	    -26.19118855	      6.49689378	     13.25800106	      2.90099251	     -5.93241843	      6.10232356	    -58.54467724	    -20.09285081	    -10.11111900	     -5.97199411	      6.77677799	     -9.31519817
      1.83000000	      6.91501430	     -6.03415927	     59.38254581	      1.00028608	      0.90168236	      0.61979657	     21.41456065	      5.46702445	      0.90125497	    -25.82842207	      6.69347403	     12.33809680	      5.45948628	     -6.63288178	      5.76250761	    -61.59227983	    -22.27632198	     -9.80506923	     -6.13722012	      7.12103559	     -9.03199413
      1.84000000	      7.17533632	     -6.17786681	     60.25282057	      1.00495047	      0.90283636	      0.61234743	     20.57882973	      5.68545531	      0.25908472	    -25.45009323	      6.94314396	     11.37941924	      7.92166196	     -7.16019698	      5.57307876	    -64.34918764	    -23.62704975	     -9.09351780	     -6.34211667	      7.40442275	     -8.65337455
      1.85000000	      7.44529504	     -6.22450701	     61.08318277	      1.00943875	      0.90410263	      0.60484873	     19.67613913	      5.88739619	     -0.33093019	    -25.10293014	      7.14904201	     10.54637987	     10.21968054	     -7.54553664	      5.44570294	    -66.79044981	    -24.06394710	     -8.19558611	     -6.64022993	      7.64322409	     -8.19434137
      1.86000000	      7.69203171	     -6.16761914	     61.86962351	      1.01376114	      0.90551432	      0.59723881	     18.67763601	      6.04214200	     -0.81969678	    -24.73000497	      7.40345206	      9.82214300	     12.33845078	     -7.75821055	      5.33360452	    -68.87703311	    -23.67605970	     -7.34233013	     -7.00671578	      7.80668443	     -7.66917758
      1.87000000	      7.91349944	     -6.00634144	     62.60913156	      1.01793275	      0.90706450	      0.58951475	     17.58431389	      6.14367935	     -1.21818541	    -24.34199038	      7.71256332	      9.24053929	     14.26354910	     -7.82207063	      5.18012190	    -70.59919850	    -22.49735338	     -6.75065578	     -7.44024832	      7.89461495	     -7.08998970
      1.88000000	      8.09229943	     -5.74942918	     63.30078835	      1.02194929	      0.90874703	      0.58167218	     16.40863772	      6.17096746	     -1.55625037	    -23.93369461	      7.99154287	      8.87802775	     15.99951166	     -7.74186338	      4.95262256	    -71.94133767	    -20.69434276	     -6.51084089	     -7.92082305	      7.89746446	     -6.46770716
      1.89000000	      8.24874140	     -5.40751407	     63.95012311	      1.02582522	      0.91052283	      0.57374945	     15.15602150	      6.14835212	     -1.85399958	    -23.51841988	      8.31846598	      8.51462744	     17.55106858	     -7.56306074	      4.64364988	    -72.91440685	    -18.50234131	     -6.54286531	     -8.45402339	      7.84157201	     -5.79611811
      1.90000000	      8.36184314	     -4.98119787	     64.53591283	      1.02961051	      0.91239659	      0.56570381	     13.80291561	      6.05756312	     -2.09889055	    -23.04275593	      8.67647406	      8.23693076	     18.89923118	     -7.29108414	      4.20841198	    -73.49536968	    -16.07355481	     -6.89807651	     -9.01901469	      7.70605818	     -5.07964651
      1.91000000	      8.44142858	     -4.51922983	     65.08163032	      1.03327566	      0.91425670	      0.55759583	     12.41278500	      5.91991729	     -2.34510696	    -22.53721149	      9.01980508	      8.11208139	     20.10795272	     -6.95981970	      3.69470669	    -73.72089982	    -13.57884873	     -7.25724836	     -9.57843757	      7.52648815	     -4.33487272
      1.92000000	      8.48731497	     -4.03994461	     65.58077302	      1.03682598	      0.91605620	      0.54942862	     10.99531540	      5.74589495	     -2.58242834	    -21.98661234	      9.35095050	      8.05750036	     21.19216610	     -6.57940846	      3.11546349	    -73.60686717	    -11.14278388	     -7.55558143	    -10.11389221	      7.31264355	     -3.57052785
      1.93000000	      8.50943427	     -3.56085647	     66.03942650	      1.04026191	      0.91774359	      0.54121855	      9.56107496	      5.55169658	     -2.81584457	    -21.38629376	      9.65698121	      8.05493153	     22.17420383	     -6.17636469	      2.48814704	    -73.18084693	     -8.84705890	     -7.74254272	    -10.61442589	      7.08381431	     -2.80031892
      1.94000000	      8.51560928	     -3.10363634	     66.45724568	      1.04360407	      0.91926748	      0.53299793	      8.13738464	      5.35579030	     -3.05815616	    -20.74993795	      9.94112577	      8.09814224	     23.07977767	     -5.77100746	      1.83787565	    -72.46910924	     -6.75097287	     -7.77103278	    -11.06782688	      6.85015205	     -2.01987269
      1.95000000	      8.51145707	     -2.68140987	     66.83511703	      1.04683572	      0.92058779	      0.52477192	      6.74151761	      5.16546322	     -3.31602950	    -20.08864815	     10.20468059	      8.17766232	     23.92860399	     -5.38242136	      1.17197566	    -71.49813787	     -4.88525393	     -7.63256889	    -11.46597858	      6.62788887	     -1.23341720
      1.96000000	      8.49895760	     -2.30410805	     67.17613297	      1.04997708	      0.92167720	      0.51655906	      5.38798493	      4.98889266	     -3.58632150	    -19.41285978	     10.45063488	      8.27927163	     24.73744442	     -5.02139793	      0.50849727	    -70.29288105	     -3.25392917	     -7.33926488	    -11.80512207	      6.41925021	     -0.44472010
      1.97000000	      8.47700830	     -1.97383415	     67.48590183	      1.05304754	      0.92254385	      0.50835285	      4.07524841	      4.82989048	     -3.85190201	    -18.71599274	     10.67323069	      8.38643954	     25.50616984	     -4.69179929	     -0.13819972	    -68.86007367	     -1.85530148	     -6.90841075	    -12.08120401	      6.22012844	      0.32124810
      1.98000000	      8.44753841	     -1.70977697	     67.76979429	      1.05606794	      0.92313465	      0.50018043	      2.83997854	      4.69676486	     -4.13720323	    -18.03098152	     10.90156663	      8.47273836	     26.26722988	     -4.42306219	     -0.77384648	    -67.23334074	     -0.64899186	     -6.40114777	    -12.28106995	      6.03594560	      1.06570158
      1.99000000	      8.40873406	     -1.48560796	     68.04658894	      1.05899824	      0.92351987	      0.49198922	      1.63211289	      4.58044191	     -4.40141189	    -17.31578417	     11.11698840	      8.52486205	     26.98278851	     -4.18059363	     -1.35466925	    -65.40237213	      0.33086366	     -5.83367828	    -12.43025862	      5.86269095	      1.77608956
